<svg width="24" height="24" viewBox="0 0 24 24" fill="none" xmlns="http://www.w3.org/2000/svg">
<g clip-path="url(#clip0_586_4195)">
<path d="M20 2H6C5.447 2 5 2.448 5 3V5H3V7H5V9H3V11H5V13H3V15H5V17H3V19H5V21C5 21.552 5.447 22 6 22H20C20.553 22 21 21.552 21 21V3C21 2.448 20.553 2 20 2ZM19 20H7V19H8V17H7V15H8V13H7V11H8V9H7V7H8V5H7V4H19V20Z" fill="black"/>
<path d="M12.892 14.694L12 15.586C11.6095 15.9765 11.6095 16.6095 12 17C12.3905 17.3905 13.0235 17.3905 13.414 17L14 16.414L14.5859 16.9994C14.9764 17.3897 15.6094 17.3896 15.9999 16.9991C16.3904 16.6086 16.3904 15.9754 15.9999 15.5849L15.108 14.693C16.236 14.059 17 12.471 17 10.5C17 7.935 15.711 6 14 6C12.289 6 11 7.935 11 10.5C11 12.471 11.764 14.059 12.892 14.694ZM14 8C14.553 8 15 8.447 15 9C15 9.552 14.553 10 14 10C13.447 10 13 9.552 13 9C13 8.447 13.447 8 14 8Z" fill="black"/>
</g>
<defs>
<clipPath id="clip0_586_4195">
<rect width="24" height="24" fill="white"/>
</clipPath>
</defs>
</svg>
